<mxfile host="app.diagrams.net" agent="Mozilla/5.0 (Macintosh; Intel Mac OS X 10_15_7) AppleWebKit/605.1.15 (KHTML, like Gecko) Version/18.3.1 Safari/605.1.15" version="26.2.2">
  <diagram name="Page-1" id="wtt48YbRe5ttvKdHWdu4">
    <mxGraphModel dx="1174" dy="611" grid="1" gridSize="10" guides="1" tooltips="1" connect="1" arrows="1" fold="1" page="1" pageScale="1" pageWidth="827" pageHeight="1169" math="0" shadow="0">
      <root>
        <mxCell id="0" />
        <mxCell id="1" parent="0" />
        <mxCell id="iBvbxO8lnX9BYuaIvIhf-1" value="Kamera" style="rounded=1;whiteSpace=wrap;html=1;strokeColor=#FF0080;fontColor=#FF0080;" parent="1" vertex="1">
          <mxGeometry x="14" y="400" width="120" height="60" as="geometry" />
        </mxCell>
        <mxCell id="iBvbxO8lnX9BYuaIvIhf-2" value="" style="endArrow=classic;html=1;rounded=0;exitX=1;exitY=0.5;exitDx=0;exitDy=0;entryX=0;entryY=0.5;entryDx=0;entryDy=0;" parent="1" source="iBvbxO8lnX9BYuaIvIhf-1" target="iBvbxO8lnX9BYuaIvIhf-4" edge="1">
          <mxGeometry width="50" height="50" relative="1" as="geometry">
            <mxPoint x="364" y="650" as="sourcePoint" />
            <mxPoint x="284" y="550" as="targetPoint" />
          </mxGeometry>
        </mxCell>
        <mxCell id="iBvbxO8lnX9BYuaIvIhf-3" value="Bilddaten" style="edgeLabel;html=1;align=center;verticalAlign=middle;resizable=0;points=[];" parent="iBvbxO8lnX9BYuaIvIhf-2" vertex="1" connectable="0">
          <mxGeometry x="0.2833" y="3" relative="1" as="geometry">
            <mxPoint x="-27" y="3" as="offset" />
          </mxGeometry>
        </mxCell>
        <mxCell id="iBvbxO8lnX9BYuaIvIhf-4" value="ROS" style="rounded=1;whiteSpace=wrap;html=1;strokeColor=#00CCCC;fontColor=#00CCCC;" parent="1" vertex="1">
          <mxGeometry x="284" y="400" width="120" height="60" as="geometry" />
        </mxCell>
        <mxCell id="iBvbxO8lnX9BYuaIvIhf-5" value="KI" style="rounded=1;whiteSpace=wrap;html=1;strokeColor=#7F00FF;fontColor=#7F00FF;" parent="1" vertex="1">
          <mxGeometry x="284" y="560" width="120" height="60" as="geometry" />
        </mxCell>
        <mxCell id="iBvbxO8lnX9BYuaIvIhf-6" value="Position&lt;div&gt;des Unkrauts&lt;/div&gt;" style="endArrow=classic;html=1;rounded=0;entryX=0.25;entryY=1;entryDx=0;entryDy=0;exitX=0.25;exitY=0;exitDx=0;exitDy=0;" parent="1" source="iBvbxO8lnX9BYuaIvIhf-5" target="iBvbxO8lnX9BYuaIvIhf-4" edge="1">
          <mxGeometry width="50" height="50" relative="1" as="geometry">
            <mxPoint x="254" y="540" as="sourcePoint" />
            <mxPoint x="304" y="490" as="targetPoint" />
          </mxGeometry>
        </mxCell>
        <mxCell id="iBvbxO8lnX9BYuaIvIhf-7" value="" style="endArrow=classic;html=1;rounded=0;entryX=0.75;entryY=0;entryDx=0;entryDy=0;exitX=0.75;exitY=1;exitDx=0;exitDy=0;" parent="1" source="iBvbxO8lnX9BYuaIvIhf-4" target="iBvbxO8lnX9BYuaIvIhf-5" edge="1">
          <mxGeometry width="50" height="50" relative="1" as="geometry">
            <mxPoint x="374" y="480" as="sourcePoint" />
            <mxPoint x="334" y="510" as="targetPoint" />
          </mxGeometry>
        </mxCell>
        <mxCell id="iBvbxO8lnX9BYuaIvIhf-8" value="Bilddaten" style="edgeLabel;html=1;align=center;verticalAlign=middle;resizable=0;points=[];" parent="iBvbxO8lnX9BYuaIvIhf-7" vertex="1" connectable="0">
          <mxGeometry x="-0.0475" y="1" relative="1" as="geometry">
            <mxPoint as="offset" />
          </mxGeometry>
        </mxCell>
        <mxCell id="iBvbxO8lnX9BYuaIvIhf-9" value="Microcontroller&lt;div&gt;(ESP32)&lt;/div&gt;" style="rounded=1;whiteSpace=wrap;html=1;" parent="1" vertex="1">
          <mxGeometry x="524" y="400" width="120" height="60" as="geometry" />
        </mxCell>
        <mxCell id="iBvbxO8lnX9BYuaIvIhf-10" value="Laser" style="ellipse;whiteSpace=wrap;html=1;" parent="1" vertex="1">
          <mxGeometry x="684" y="380" width="120" height="30" as="geometry" />
        </mxCell>
        <mxCell id="iBvbxO8lnX9BYuaIvIhf-11" value="Schrittmotoren" style="ellipse;whiteSpace=wrap;html=1;" parent="1" vertex="1">
          <mxGeometry x="684" y="440" width="120" height="30" as="geometry" />
        </mxCell>
        <mxCell id="iBvbxO8lnX9BYuaIvIhf-12" value="" style="endArrow=classic;html=1;rounded=0;entryX=0;entryY=0.5;entryDx=0;entryDy=0;exitX=1;exitY=0.25;exitDx=0;exitDy=0;" parent="1" source="iBvbxO8lnX9BYuaIvIhf-9" target="iBvbxO8lnX9BYuaIvIhf-10" edge="1">
          <mxGeometry width="50" height="50" relative="1" as="geometry">
            <mxPoint x="384" y="510" as="sourcePoint" />
            <mxPoint x="684" y="400" as="targetPoint" />
          </mxGeometry>
        </mxCell>
        <mxCell id="iBvbxO8lnX9BYuaIvIhf-13" value="" style="endArrow=classic;html=1;rounded=0;entryX=0;entryY=0.5;entryDx=0;entryDy=0;exitX=1;exitY=0.75;exitDx=0;exitDy=0;" parent="1" source="iBvbxO8lnX9BYuaIvIhf-9" target="iBvbxO8lnX9BYuaIvIhf-11" edge="1">
          <mxGeometry width="50" height="50" relative="1" as="geometry">
            <mxPoint x="384" y="510" as="sourcePoint" />
            <mxPoint x="434" y="460" as="targetPoint" />
          </mxGeometry>
        </mxCell>
        <mxCell id="iBvbxO8lnX9BYuaIvIhf-14" value="" style="rounded=1;whiteSpace=wrap;html=1;fillColor=none;dashed=1;fontColor=#0000FF;strokeColor=#0000FF;" parent="1" vertex="1">
          <mxGeometry x="261.5" y="350" width="165" height="310" as="geometry" />
        </mxCell>
        <mxCell id="iBvbxO8lnX9BYuaIvIhf-15" value="Innerhalb des PCs" style="text;html=1;align=center;verticalAlign=middle;whiteSpace=wrap;rounded=0;fontColor=#0000FF;" parent="1" vertex="1">
          <mxGeometry x="314" y="360" width="60" height="30" as="geometry" />
        </mxCell>
        <mxCell id="iBvbxO8lnX9BYuaIvIhf-16" value="" style="rounded=1;whiteSpace=wrap;html=1;fillColor=none;dashed=1;strokeColor=#FF3333;" parent="1" vertex="1">
          <mxGeometry x="494" y="340" width="320" height="180" as="geometry" />
        </mxCell>
        <mxCell id="iBvbxO8lnX9BYuaIvIhf-17" value="Lasersteuerung" style="text;html=1;align=center;verticalAlign=middle;whiteSpace=wrap;rounded=0;fontColor=#FF3333;" parent="1" vertex="1">
          <mxGeometry x="604" y="350" width="100" height="20" as="geometry" />
        </mxCell>
        <mxCell id="iBvbxO8lnX9BYuaIvIhf-18" value="" style="shape=flexArrow;endArrow=classic;html=1;rounded=0;entryX=0;entryY=0.5;entryDx=0;entryDy=0;exitX=1;exitY=0.5;exitDx=0;exitDy=0;width=10;endSize=8.33;" parent="1" source="iBvbxO8lnX9BYuaIvIhf-4" target="iBvbxO8lnX9BYuaIvIhf-9" edge="1">
          <mxGeometry width="50" height="50" relative="1" as="geometry">
            <mxPoint x="504" y="590" as="sourcePoint" />
            <mxPoint x="474" y="530" as="targetPoint" />
          </mxGeometry>
        </mxCell>
        <mxCell id="iBvbxO8lnX9BYuaIvIhf-19" value="Austausch&lt;div&gt;Ã¼ber seriell&lt;/div&gt;" style="edgeLabel;html=1;align=center;verticalAlign=middle;resizable=0;points=[];" parent="iBvbxO8lnX9BYuaIvIhf-18" vertex="1" connectable="0">
          <mxGeometry x="-0.1764" relative="1" as="geometry">
            <mxPoint x="5" as="offset" />
          </mxGeometry>
        </mxCell>
        <mxCell id="9FJz6i8ub-TDWVriTueq-1" value="CAM-Frame" style="rounded=1;whiteSpace=wrap;html=1;" vertex="1" parent="1">
          <mxGeometry x="14" y="100" width="120" height="60" as="geometry" />
        </mxCell>
        <mxCell id="9FJz6i8ub-TDWVriTueq-2" value="ODOM-Frame" style="rounded=1;whiteSpace=wrap;html=1;" vertex="1" parent="1">
          <mxGeometry x="284" y="170" width="120" height="60" as="geometry" />
        </mxCell>
        <mxCell id="9FJz6i8ub-TDWVriTueq-4" value="GANTRY-Frame" style="rounded=1;whiteSpace=wrap;html=1;" vertex="1" parent="1">
          <mxGeometry x="594" y="100" width="120" height="60" as="geometry" />
        </mxCell>
        <mxCell id="9FJz6i8ub-TDWVriTueq-5" value="BASE-Frame" style="rounded=1;whiteSpace=wrap;html=1;" vertex="1" parent="1">
          <mxGeometry x="284" y="100" width="120" height="60" as="geometry" />
        </mxCell>
        <mxCell id="9FJz6i8ub-TDWVriTueq-6" value="Koordinatentransformation" style="rounded=1;whiteSpace=wrap;html=1;" vertex="1" parent="1">
          <mxGeometry x="251" y="270" width="186" height="60" as="geometry" />
        </mxCell>
        <mxCell id="9FJz6i8ub-TDWVriTueq-8" style="edgeStyle=none;curved=1;rounded=0;orthogonalLoop=1;jettySize=auto;html=1;exitX=0;exitY=0.25;exitDx=0;exitDy=0;fontSize=12;startSize=8;endSize=8;" edge="1" parent="1" source="9FJz6i8ub-TDWVriTueq-7">
          <mxGeometry relative="1" as="geometry">
            <mxPoint x="380" y="775" as="targetPoint" />
          </mxGeometry>
        </mxCell>
        <mxCell id="9FJz6i8ub-TDWVriTueq-11" value="Encoderdaten" style="edgeLabel;html=1;align=center;verticalAlign=middle;resizable=0;points=[];fontSize=12;" vertex="1" connectable="0" parent="9FJz6i8ub-TDWVriTueq-8">
          <mxGeometry x="0.2" y="-1" relative="1" as="geometry">
            <mxPoint as="offset" />
          </mxGeometry>
        </mxCell>
        <mxCell id="9FJz6i8ub-TDWVriTueq-7" value="Motoren" style="rounded=1;whiteSpace=wrap;html=1;" vertex="1" parent="1">
          <mxGeometry x="660" y="600" width="120" height="60" as="geometry" />
        </mxCell>
        <mxCell id="9FJz6i8ub-TDWVriTueq-9" style="edgeStyle=none;curved=1;rounded=0;orthogonalLoop=1;jettySize=auto;html=1;fontSize=12;startSize=8;endSize=8;entryX=0;entryY=0.75;entryDx=0;entryDy=0;" edge="1" parent="1" target="9FJz6i8ub-TDWVriTueq-7">
          <mxGeometry relative="1" as="geometry">
            <mxPoint x="450" y="830" as="targetPoint" />
            <mxPoint x="380" y="805" as="sourcePoint" />
          </mxGeometry>
        </mxCell>
        <mxCell id="9FJz6i8ub-TDWVriTueq-10" value="cmd_vel" style="edgeLabel;html=1;align=center;verticalAlign=middle;resizable=0;points=[];fontSize=12;" vertex="1" connectable="0" parent="9FJz6i8ub-TDWVriTueq-9">
          <mxGeometry x="-0.6889" relative="1" as="geometry">
            <mxPoint as="offset" />
          </mxGeometry>
        </mxCell>
      </root>
    </mxGraphModel>
  </diagram>
</mxfile>
